<svg width="30" height="30" viewBox="0 0 30 30" fill="none" xmlns="http://www.w3.org/2000/svg">
<g clip-path="url(#clip0_1_36)">
<path d="M21.2051 23.5195C21.041 23.5195 20.8828 23.4551 20.7598 23.332C20.5254 23.0859 20.5313 22.6934 20.7773 22.459L28.957 14.5547C29.2031 14.3203 29.5957 14.3262 29.8301 14.5723C30.0645 14.8184 30.0586 15.2109 29.8125 15.4453L21.6328 23.3496C21.5098 23.4609 21.3574 23.5195 21.2051 23.5195Z" fill="white"/>
<path d="M29.3848 15.6152C29.2324 15.6152 29.0742 15.5566 28.957 15.4395L20.7715 7.54102C20.5254 7.30664 20.5195 6.91406 20.7539 6.66797C20.9883 6.42188 21.3809 6.41602 21.627 6.65039L29.8066 14.5547C30.0527 14.7891 30.0586 15.1816 29.8242 15.4277C29.707 15.5566 29.543 15.6152 29.3848 15.6152Z" fill="white"/>
<path d="M8.79492 23.5195C8.64258 23.5195 8.48437 23.4609 8.36719 23.3438L0.1875 15.4453C-0.0585934 15.2109 -0.0644527 14.8184 0.169922 14.5723C0.404297 14.3262 0.796875 14.3203 1.04297 14.5547L9.22265 22.459C9.46875 22.6934 9.47461 23.0859 9.24023 23.332C9.11719 23.4609 8.95898 23.5195 8.79492 23.5195Z" fill="white"/>
<path d="M0.615235 15.6152C0.451172 15.6152 0.292969 15.5508 0.169922 15.4277C-0.0644527 15.1816 -0.0585934 14.7891 0.1875 14.5547L8.36719 6.65039C8.61328 6.41602 9.00586 6.42188 9.24023 6.66797C9.47461 6.91406 9.46875 7.30664 9.22265 7.54102L1.04883 15.4453C0.925781 15.5625 0.773438 15.6152 0.615235 15.6152Z" fill="white"/>
<path d="M12.0586 26.1387C12.0059 26.1387 11.9473 26.1328 11.8945 26.1152C11.5664 26.0215 11.373 25.6817 11.4668 25.3535L17.3437 4.3125C17.4375 3.98438 17.7773 3.79102 18.1055 3.88477C18.4336 3.97852 18.6269 4.31836 18.5332 4.64649L12.6562 25.6875C12.5801 25.9629 12.3281 26.1387 12.0586 26.1387Z" fill="white"/>
</g>
<defs>
<clipPath id="clip0_1_36">
<rect width="30" height="30" fill="white"/>
</clipPath>
</defs>
</svg>
