<svg width="22" height="22" viewBox="0 0 22 22" fill="none" xmlns="http://www.w3.org/2000/svg">
<path d="M15.5 0.125C13.75 0.125 12.25 0.75 11 2L8.25 4.75C7.75 5.25 7.75 6 8.25 6.5C8.75 7 9.5 7 10 6.5L12.75 3.75C14.25 2.25 16.75 2.25 18.25 3.75C19 4.5 19.375 5.5 19.375 6.5C19.375 7.5 19 8.5 18.25 9.25L15.5 12C15 12.5 15 13.25 15.5 13.75C15.75 14 16.125 14.125 16.375 14.125C16.625 14.125 17 14 17.25 13.75L20 11C21.25 9.75 21.875 8.25 21.875 6.5C21.875 4.75 21.25 3.25 20 2C18.75 0.75 17.25 0.125 15.5 0.125Z" fill="white"/>
<path d="M6.5 10.125C7 9.625 7 8.875 6.5 8.375C6 7.875 5.25 7.875 4.75 8.375L2 11C0.75 12.25 0.125 13.75 0.125 15.5C0.125 17.25 0.75 18.75 2 20C3.25 21.25 4.75 21.875 6.5 21.875C8.25 21.875 9.75 21.25 11 20L13.75 17.25C14.25 16.75 14.25 16 13.75 15.5C13.25 15 12.5 15 12 15.5L9.25 18.25C7.75 19.75 5.25 19.75 3.75 18.25C3 17.5 2.625 16.5 2.625 15.5C2.625 14.5 3 13.5 3.75 12.75L6.5 10.125Z" fill="white"/>
<path d="M7.375 14.625C7.625 14.875 8 15 8.25 15C8.5 15 8.875 14.875 9.125 14.625L14.5 9.25C15 8.75 15 8 14.5 7.5C14 7 13.25 7 12.75 7.5L7.375 12.875C6.875 13.25 6.875 14.125 7.375 14.625Z" fill="white"/>
</svg>
